<?xml version="1.0" encoding="UTF-8" standalone="no"?>
<!DOCTYPE svg PUBLIC "-//W3C//DTD SVG 1.1//EN" "http://www.w3.org/Graphics/SVG/1.1/DTD/svg11.dtd">
<svg width="100%" height="100%" viewBox="0 0 607 607" version="1.1" xmlns="http://www.w3.org/2000/svg" xmlns:xlink="http://www.w3.org/1999/xlink" xml:space="preserve" xmlns:serif="http://www.serif.com/" style="fill-rule:evenodd;clip-rule:evenodd;stroke-linejoin:round;stroke-miterlimit:2;">
    <g transform="matrix(1,0,0,1,-1630.72,-1421)">
        <g transform="matrix(9.65351e-17,1.57654,-1.57654,9.65351e-17,4607.32,87.2631)">
            <path d="M1025.04,1511.44C1027.58,1506.36 1032.77,1503.15 1038.44,1503.15C1044.12,1503.15 1049.31,1506.36 1051.85,1511.44C1089.39,1586.53 1195.09,1797.92 1229.32,1866.38C1231.64,1871.02 1231.39,1876.54 1228.66,1880.96C1225.93,1885.37 1221.11,1888.06 1215.91,1888.06L860.973,1888.06C855.78,1888.06 850.958,1885.37 848.228,1880.96C845.498,1876.54 845.249,1871.02 847.572,1866.38C881.798,1797.92 987.497,1586.53 1025.04,1511.44Z" style="fill:white;"/>
        </g>
        <g transform="matrix(0.945455,0,0,0.954092,870.169,79.1642)">
            <path d="M1446.26,1437.01L1446.26,2011.81C1446.26,2028.7 1432.54,2042.42 1415.65,2042.42L1394.13,2042.42C1377.24,2042.42 1363.52,2028.7 1363.52,2011.81L1363.52,1437.01C1363.52,1420.12 1377.24,1406.4 1394.13,1406.4L1415.65,1406.4C1432.54,1406.4 1446.26,1420.12 1446.26,1437.01Z" style="fill:white;"/>
        </g>
    </g>
</svg>
