<?xml version="1.0" encoding="UTF-8" standalone="no"?>
<!DOCTYPE svg PUBLIC "-//W3C//DTD SVG 1.1//EN" "http://www.w3.org/Graphics/SVG/1.1/DTD/svg11.dtd">
<svg width="100%" height="100%" viewBox="0 0 413 637" version="1.1" xmlns="http://www.w3.org/2000/svg" xmlns:xlink="http://www.w3.org/1999/xlink" xml:space="preserve" xmlns:serif="http://www.serif.com/" style="fill-rule:evenodd;clip-rule:evenodd;stroke-linejoin:round;stroke-miterlimit:2;">
    <g transform="matrix(1,0,0,1,-1034.05,-1406.4)">
        <path d="M1446.26,1437.01L1446.26,2011.81C1446.26,2028.7 1432.54,2042.42 1415.65,2042.42L1394.13,2042.42C1377.24,2042.42 1363.52,2028.7 1363.52,2011.81L1363.52,1437.01C1363.52,1420.12 1377.24,1406.4 1394.13,1406.4L1415.65,1406.4C1432.54,1406.4 1446.26,1420.12 1446.26,1437.01ZM1116.8,1437.01L1116.8,2011.81C1116.8,2028.7 1103.08,2042.42 1086.18,2042.42L1064.67,2042.42C1047.77,2042.42 1034.05,2028.7 1034.05,2011.81L1034.05,1437.01C1034.05,1420.12 1047.77,1406.4 1064.67,1406.4L1086.18,1406.4C1103.08,1406.4 1116.8,1420.12 1116.8,1437.01Z" style="fill:white;"/>
    </g>
</svg>
