<?xml version="1.0" encoding="UTF-8" standalone="no"?>
<!DOCTYPE svg PUBLIC "-//W3C//DTD SVG 1.1//EN" "http://www.w3.org/Graphics/SVG/1.1/DTD/svg11.dtd">
<svg width="100%" height="100%" viewBox="0 0 238 368" version="1.1" xmlns="http://www.w3.org/2000/svg" xmlns:xlink="http://www.w3.org/1999/xlink" xml:space="preserve" xmlns:serif="http://www.serif.com/" style="fill-rule:evenodd;clip-rule:evenodd;stroke-linejoin:round;stroke-miterlimit:2;">
    <g transform="matrix(1,0,0,1,-421.263,-356.249)">
        <path id="Puased" d="M484.344,387.79C484.344,370.382 470.211,356.249 452.804,356.249C435.396,356.249 421.263,370.382 421.263,387.79L421.263,692.21C421.263,709.618 435.396,723.751 452.804,723.751C470.211,723.751 484.344,709.618 484.344,692.21L484.344,387.79ZM658.737,387.79C658.737,370.382 644.604,356.249 627.196,356.249C609.789,356.249 595.656,370.382 595.656,387.79L595.656,692.21C595.656,709.618 609.789,723.751 627.196,723.751C644.604,723.751 658.737,709.618 658.737,692.21L658.737,387.79Z"/>
    </g>
</svg>
