<?xml version="1.0" encoding="UTF-8" standalone="no"?>
<!DOCTYPE svg PUBLIC "-//W3C//DTD SVG 1.1//EN" "http://www.w3.org/Graphics/SVG/1.1/DTD/svg11.dtd">
<svg width="100%" height="100%" viewBox="0 0 368 368" version="1.1" xmlns="http://www.w3.org/2000/svg" xmlns:xlink="http://www.w3.org/1999/xlink" xml:space="preserve" xmlns:serif="http://www.serif.com/" style="fill-rule:evenodd;clip-rule:evenodd;stroke-linejoin:round;stroke-miterlimit:2;">
    <g transform="matrix(1,0,0,1,-356.249,-356.249)">
        <g id="Playing" transform="matrix(6.12323e-17,1,-1,6.12323e-17,1173.58,24.2619)">
            <path d="M543.687,467.104C538.394,456.518 527.574,449.831 515.738,449.831C503.902,449.831 493.083,456.518 487.789,467.104L335.286,772.11C330.443,781.797 330.961,793.3 336.654,802.513C342.348,811.725 352.405,817.332 363.235,817.332L668.241,817.332C679.071,817.332 689.129,811.725 694.822,802.513C700.516,793.3 701.033,781.797 696.19,772.11L543.687,467.104ZM515.738,550.95C515.738,550.95 581.776,683.026 617.682,754.837C617.682,754.837 413.794,754.837 413.794,754.837L515.738,550.95Z"/>
        </g>
    </g>
</svg>
