<?xml version="1.0" encoding="UTF-8" standalone="no"?>
<!DOCTYPE svg PUBLIC "-//W3C//DTD SVG 1.1//EN" "http://www.w3.org/Graphics/SVG/1.1/DTD/svg11.dtd">
<svg width="100%" height="100%" viewBox="0 0 368 368" version="1.1" xmlns="http://www.w3.org/2000/svg" xmlns:xlink="http://www.w3.org/1999/xlink" xml:space="preserve" xmlns:serif="http://www.serif.com/" style="fill-rule:evenodd;clip-rule:evenodd;stroke-linejoin:round;stroke-miterlimit:2;">
    <g transform="matrix(1,0,0,1,-344.292,-356.249)">
        <g id="NextPrev" transform="matrix(0.959461,0,0,1,13.9573,0)">
            <path d="M727.319,387.79C727.319,370.382 715.488,356.249 700.915,356.249C686.342,356.249 674.51,370.382 674.51,387.79L674.51,692.21C674.51,709.618 686.342,723.751 700.915,723.751C715.488,723.751 727.319,709.618 727.319,692.21L727.319,387.79ZM651.459,567.949C660.743,562.656 666.608,551.836 666.608,540C666.608,528.164 660.743,517.344 651.459,512.051L383.953,359.548C375.458,354.705 365.369,355.223 357.289,360.916C349.21,366.61 344.292,376.667 344.292,387.497L344.292,692.503C344.292,703.333 349.21,713.39 357.289,719.084C365.369,724.777 375.458,725.295 383.953,720.452L651.459,567.949ZM577.922,540C577.922,540 462.085,606.038 399.103,641.944C399.103,641.944 399.103,438.056 399.103,438.056L577.922,540Z"/>
        </g>
    </g>
</svg>
