<?xml version="1.0" encoding="UTF-8" standalone="no"?>
<!DOCTYPE svg PUBLIC "-//W3C//DTD SVG 1.1//EN" "http://www.w3.org/Graphics/SVG/1.1/DTD/svg11.dtd">
<svg width="100%" height="100%" viewBox="0 0 288 235" version="1.1" xmlns="http://www.w3.org/2000/svg" xmlns:xlink="http://www.w3.org/1999/xlink" xml:space="preserve" xmlns:serif="http://www.serif.com/" style="fill-rule:evenodd;clip-rule:evenodd;stroke-linejoin:round;stroke-miterlimit:2;">
    <g transform="matrix(1,0,0,1,-396.045,-422.546)">
        <path d="M677.314,470.928C681.552,478.849 683.955,487.896 683.955,497.5L683.955,582.5C683.955,613.658 658.658,638.955 627.5,638.955L464.03,638.955L464.03,650.454C464.03,653.008 462.638,655.36 460.399,656.589C458.16,657.819 455.429,657.731 453.274,656.361C441.873,649.111 424.054,637.781 413.244,630.907C411.224,629.622 410,627.394 410,625C410,622.606 411.224,620.378 413.244,619.093C424.054,612.219 441.873,600.889 453.274,593.639C455.429,592.269 458.16,592.181 460.399,593.411C462.638,594.64 464.03,596.992 464.03,599.546L464.03,611.045L627.5,611.045C643.254,611.045 656.045,598.254 656.045,582.5L656.045,497.5C656.045,493.605 655.263,489.89 653.847,486.506L677.314,470.928ZM402.686,609.072C398.448,601.151 396.045,592.104 396.045,582.5C396.045,582.5 396.045,497.5 396.045,497.5C396.045,466.342 421.342,441.045 452.5,441.045L615.97,441.045L615.97,429.546C615.97,426.992 617.362,424.64 619.601,423.411C621.84,422.181 624.571,422.269 626.726,423.639C638.127,430.889 655.946,442.219 666.756,449.093C668.776,450.378 670,452.606 670,455C670,457.394 668.776,459.622 666.756,460.907C655.946,467.781 638.127,479.111 626.726,486.361C624.571,487.731 621.84,487.819 619.601,486.589C617.362,485.36 615.97,483.008 615.97,480.454L615.97,468.955L452.5,468.955C436.746,468.955 423.955,481.746 423.955,497.5L423.955,582.5C423.955,586.395 424.737,590.11 426.153,593.494L402.686,609.072Z"/>
    </g>
</svg>
