<?xml version="1.0" encoding="UTF-8" standalone="no"?>
<!DOCTYPE svg PUBLIC "-//W3C//DTD SVG 1.1//EN" "http://www.w3.org/Graphics/SVG/1.1/DTD/svg11.dtd">
<svg width="100%" height="100%" viewBox="0 0 408 219" version="1.1" xmlns="http://www.w3.org/2000/svg" xmlns:xlink="http://www.w3.org/1999/xlink" xml:space="preserve" xmlns:serif="http://www.serif.com/" style="fill-rule:evenodd;clip-rule:evenodd;stroke-linejoin:round;stroke-miterlimit:2;">
    <g transform="matrix(1,0,0,1,-336.247,-430.642)">
        <g id="Shuffle" transform="matrix(1,0,0,1,22.0121,-106.274)">
            <path d="M668.435,746.285C668.246,746.286 668.058,746.282 667.869,746.276C595.079,743.893 557.517,737.538 531.171,716.719C513.135,702.468 499.842,681.248 485.242,648.207C457.221,584.791 417.442,585.527 330.611,580.851C321.073,580.337 313.746,572.176 314.26,562.638C314.774,553.1 322.935,545.773 332.473,546.287C437.659,551.952 482.958,557.395 516.903,634.217C528.563,660.605 538.227,678.179 552.631,689.561C574.876,707.139 607.15,709.647 668.435,711.662L668.435,709.326C668.435,706.9 669.691,704.647 671.755,703.371C673.819,702.096 676.396,701.98 678.566,703.065C689.31,708.437 706.296,716.93 717.872,722.718C720.243,723.903 721.741,726.327 721.741,728.979C721.741,731.63 720.243,734.054 717.872,735.24C706.296,741.027 689.31,749.521 678.566,754.893C676.396,755.978 673.819,755.862 671.755,754.586C669.691,753.311 668.435,751.058 668.435,748.632L668.435,746.285ZM478.66,657.671C450.929,707.676 410.869,707.374 330.611,711.697C321.073,712.21 313.746,720.371 314.26,729.909C314.774,739.448 322.935,746.774 332.473,746.261C418.936,741.604 464.934,737.097 497.421,692.975C491.036,683.02 484.914,671.375 478.66,657.671ZM668.435,546.262L668.435,543.916C668.435,541.49 669.691,539.237 671.755,537.961C673.819,536.686 676.396,536.57 678.566,537.655C689.31,543.027 706.296,551.52 717.872,557.308C720.243,558.493 721.741,560.917 721.741,563.569C721.741,566.22 720.243,568.644 717.872,569.83C706.296,575.617 689.31,584.111 678.566,589.483C676.396,590.568 673.819,590.452 671.755,589.176C669.691,587.901 668.435,585.648 668.435,583.222L668.435,580.885C607.15,582.901 574.876,585.408 552.631,602.986C542.988,610.607 535.469,621.002 528.053,634.96C527.358,633.417 526.654,631.837 525.941,630.223C520.734,618.439 515.287,608.222 509.433,599.342C516.096,589.85 523.167,582.153 531.171,575.828C557.517,555.01 595.079,548.655 667.869,546.271C668.058,546.265 668.246,546.262 668.435,546.262Z"/>
        </g>
    </g>
</svg>
